<svg width="22" height="34" viewBox="0 0 22 34" fill="none" xmlns="http://www.w3.org/2000/svg">
<path d="M7.32025 0.889989L0.890416 7.31983C0.320207 7.89004 0 8.6623 0 9.4671V30.5152C0 33.2207 3.27228 34.5769 5.18496 32.6625L14.7535 23.0939C14.9436 22.9038 15.0498 22.647 15.0498 22.3781V13.8832C15.0498 12.9808 13.959 12.5288 13.322 13.1675L2.68837 23.7943C2.04967 24.4312 0.960623 23.9792 0.960623 23.0785V19.0374C0.960623 18.7685 1.06679 18.5117 1.25686 18.3216L13.7569 5.82153C14.1525 5.42598 14.7929 5.42598 15.1885 5.82153L20.9265 11.5596C21.1149 11.7479 21.4197 11.7479 21.6063 11.5596C21.7929 11.3712 21.7929 11.0681 21.6063 10.8815L11.6165 0.889989C10.4299 -0.296663 8.5069 -0.296663 7.32025 0.889989Z" fill="#005629"/>
</svg>
